{
  "accessors": [
    {
      "bufferView": 2,
      "componentType": 5126,
      "count": 130,
      "max": [
        62.49967575073242,
        47.77799606323242,
        163.05686950683594
      ],
      "min": [
        -33.05632781982422,
        -47.77800369262695,
        111.9576187133789
      ],
      "type": "VEC3"
    },
    {
      "bufferView": 2,
      "byteOffset": 1560,
      "componentType": 5126,
      "count": 130,
      "max": [
        0.7864851951599121,
        0.7287903428077698,
        0.7680299878120422
      ],
      "min": [
        -0.7355137467384338,
        -0.7287903428077698,
        -0.6856409311294556
      ],
      "type": "VEC3"
    },
    {
      "bufferView": 1,
      "componentType": 5126,
      "count": 130,
      "max": [
        1.0,
        1.0
      ],
      "min": [
        0.0,
        0.009999999776482582
      ],
      "type": "VEC2"
    },
    {
      "bufferView": 0,
      "componentType": 5125,
      "count": 372,
      "type": "SCALAR"
    }
  ],
  "asset": {
    "extras": {
      "author": "funnyeducomics (https://sketchfab.com/funnyeducomics)",
      "license": "SKETCHFAB Standard (https://sketchfab.com/licenses)",
      "source": "https://sketchfab.com/3d-models/base-3-cc788d7f379e41208d0ebef67d6fa559",
      "title": "Base 3"
    },
    "generator": "Sketchfab-16.16.0",
    "version": "2.0"
  },
  "bufferViews": [
    {
      "buffer": 0,
      "byteLength": 1488,
      "name": "floatBufferViews",
      "target": 34963
    },
    {
      "buffer": 0,
      "byteLength": 1040,
      "byteOffset": 1488,
      "byteStride": 8,
      "name": "floatBufferViews",
      "target": 34962
    },
    {
      "buffer": 0,
      "byteLength": 3120,
      "byteOffset": 2528,
      "byteStride": 12,
      "name": "floatBufferViews",
      "target": 34962
    }
  ],
  "buffers": [
    {
      "byteLength": 5648,
      "uri": "Base3.bin"
    }
  ],
  "materials": [
    {
      "doubleSided": true,
      "name": "firstSG",
      "pbrMetallicRoughness": {
        "baseColorFactor": [
          1.0,
          0.14,
          0.46,
          1.0
        ],
        "metallicFactor": 0.0,
        "roughnessFactor": 0.9803562498332392
      }
    }
  ],
  "meshes": [
    {
      "name": "Object_0",
      "primitives": [
        {
          "attributes": {
            "NORMAL": 1,
            "POSITION": 0,
            "TEXCOORD_0": 2
          },
          "indices": 3,
          "material": 0,
          "mode": 4
        }
      ]
    }
  ],
  "nodes": [
    {
      "children": [
        1
      ],
      "matrix": [
        1.0,
        0.0,
        0.0,
        0.0,
        0.0,
        2.220446049250313e-16,
        -1.0,
        0.0,
        0.0,
        1.0,
        2.220446049250313e-16,
        0.0,
        0.0,
        0.0,
        0.0,
        1.0
      ],
      "name": "Sketchfab_model"
    },
    {
      "children": [
        2
      ],
      "name": "base 3.obj.cleaner.materialmerger.gles"
    },
    {
      "mesh": 0,
      "name": "Object_2"
    }
  ],
  "scene": 0,
  "scenes": [
    {
      "name": "Sketchfab_Scene",
      "nodes": [
        0
      ]
    }
  ]
}
