{
  "accessors": [
    {
      "bufferView": 2,
      "componentType": 5126,
      "count": 9986,
      "max": [
        80.83380889892578,
        82.32300567626953,
        91.35897827148438
      ],
      "min": [
        -79.22434997558594,
        -82.322998046875,
        1.1542099714279175
      ],
      "type": "VEC3"
    },
    {
      "bufferView": 2,
      "byteOffset": 119832,
      "componentType": 5126,
      "count": 9986,
      "max": [
        0.9999558925628662,
        0.9999143481254578,
        0.9999440908432007
      ],
      "min": [
        -0.9999272227287292,
        -0.9998721480369568,
        -0.9999837875366211
      ],
      "type": "VEC3"
    },
    {
      "bufferView": 1,
      "componentType": 5126,
      "count": 9986,
      "max": [
        0.0,
        0.0
      ],
      "min": [
        0.0,
        0.0
      ],
      "type": "VEC2"
    },
    {
      "bufferView": 0,
      "componentType": 5125,
      "count": 59904,
      "type": "SCALAR"
    }
  ],
  "asset": {
    "extras": {
      "author": "funnyeducomics (https://sketchfab.com/funnyeducomics)",
      "license": "CC-BY-4.0 (http://creativecommons.org/licenses/by/4.0/)",
      "source": "https://sketchfab.com/3d-models/chocoloate-3ca2ee65a43040cab2d6d36ebb9b709a",
      "title": "Chocoloate"
    },
    "generator": "Sketchfab-16.16.0",
    "version": "2.0"
  },
  "bufferViews": [
    {
      "buffer": 0,
      "byteLength": 239616,
      "name": "floatBufferViews",
      "target": 34963
    },
    {
      "buffer": 0,
      "byteLength": 79888,
      "byteOffset": 239616,
      "byteStride": 8,
      "name": "floatBufferViews",
      "target": 34962
    },
    {
      "buffer": 0,
      "byteLength": 239664,
      "byteOffset": 319504,
      "byteStride": 12,
      "name": "floatBufferViews",
      "target": 34962
    }
  ],
  "buffers": [
    {
      "byteLength": 559168,
      "uri": "Choco1.bin"
    }
  ],
  "materials": [
    {
      "doubleSided": true,
      "name": "Topping1SG",
      "pbrMetallicRoughness": {
        "baseColorFactor": [
          0.22,
          0.0,
          0.0,
          1.0
        ],
        "metallicFactor": 0.0,
        "roughnessFactor": 0.9976720951586102
      }
    }
  ],
  "meshes": [
    {
      "name": "Object_0",
      "primitives": [
        {
          "attributes": {
            "NORMAL": 1,
            "POSITION": 0,
            "TEXCOORD_0": 2
          },
          "indices": 3,
          "material": 0,
          "mode": 4
        }
      ]
    }
  ],
  "nodes": [
    {
      "children": [
        1
      ],
      "matrix": [
        1.0,
        0.0,
        0.0,
        0.0,
        0.0,
        2.220446049250313e-16,
        -1.0,
        0.0,
        0.0,
        1.0,
        2.220446049250313e-16,
        0.0,
        0.0,
        0.0,
        0.0,
        1.0
      ],
      "name": "Sketchfab_model"
    },
    {
      "children": [
        2
      ],
      "name": "chocoloate.obj.cleaner.materialmerger.gles"
    },
    {
      "mesh": 0,
      "name": "Object_2"
    }
  ],
  "scene": 0,
  "scenes": [
    {
      "name": "Sketchfab_Scene",
      "nodes": [
        0
      ]
    }
  ]
}
