{
  "accessors": [
    {
      "bufferView": 2,
      "componentType": 5126,
      "count": 9986,
      "max": [
        74.36145782470703,
        62.309295654296875,
        120.1973648071289
      ],
      "min": [
        -53.46025466918945,
        -62.30965042114258,
        76.76128387451172
      ],
      "type": "VEC3"
    },
    {
      "bufferView": 2,
      "byteOffset": 119832,
      "componentType": 5126,
      "count": 9986,
      "max": [
        0.9999935030937195,
        0.9999944567680359,
        0.9999768733978271
      ],
      "min": [
        -0.9999520182609558,
        -0.9999948740005493,
        -0.9999807476997375
      ],
      "type": "VEC3"
    },
    {
      "bufferView": 1,
      "componentType": 5126,
      "count": 9986,
      "max": [
        0.0,
        0.0
      ],
      "min": [
        0.0,
        0.0
      ],
      "type": "VEC2"
    },
    {
      "bufferView": 0,
      "componentType": 5125,
      "count": 59904,
      "type": "SCALAR"
    }
  ],
  "asset": {
    "extras": {
      "author": "funnyeducomics (https://sketchfab.com/funnyeducomics)",
      "license": "CC-BY-4.0 (http://creativecommons.org/licenses/by/4.0/)",
      "source": "https://sketchfab.com/3d-models/chocolate-2-ff1b78f367174359a7068f5a4d889852",
      "title": "Chocolate 2"
    },
    "generator": "Sketchfab-16.16.0",
    "version": "2.0"
  },
  "bufferViews": [
    {
      "buffer": 0,
      "byteLength": 239616,
      "name": "floatBufferViews",
      "target": 34963
    },
    {
      "buffer": 0,
      "byteLength": 79888,
      "byteOffset": 239616,
      "byteStride": 8,
      "name": "floatBufferViews",
      "target": 34962
    },
    {
      "buffer": 0,
      "byteLength": 239664,
      "byteOffset": 319504,
      "byteStride": 12,
      "name": "floatBufferViews",
      "target": 34962
    }
  ],
  "buffers": [
    {
      "byteLength": 559168,
      "uri": "Choco2.bin"
    }
  ],
  "materials": [
    {
      "doubleSided": true,
      "name": "Topping1SG",
      "pbrMetallicRoughness": {
        "baseColorFactor": [
          0.22,
          0.0,
          0.0,
          1.0
        ],
        "metallicFactor": 0.0,
        "roughnessFactor": 0.9976720951586102
      }
    }
  ],
  "meshes": [
    {
      "name": "Object_0",
      "primitives": [
        {
          "attributes": {
            "NORMAL": 1,
            "POSITION": 0,
            "TEXCOORD_0": 2
          },
          "indices": 3,
          "material": 0,
          "mode": 4
        }
      ]
    }
  ],
  "nodes": [
    {
      "children": [
        1
      ],
      "matrix": [
        1.0,
        0.0,
        0.0,
        0.0,
        0.0,
        2.220446049250313e-16,
        -1.0,
        0.0,
        0.0,
        1.0,
        2.220446049250313e-16,
        0.0,
        0.0,
        0.0,
        0.0,
        1.0
      ],
      "name": "Sketchfab_model"
    },
    {
      "children": [
        2
      ],
      "name": "chocolate 2.obj.cleaner.materialmerger.gles"
    },
    {
      "mesh": 0,
      "name": "Object_2"
    }
  ],
  "scene": 0,
  "scenes": [
    {
      "name": "Sketchfab_Scene",
      "nodes": [
        0
      ]
    }
  ]
}
