{
  "accessors": [
    {
      "bufferView": 2,
      "componentType": 5126,
      "count": 1154,
      "max": [
        -2.5057449340820313,
        3.4416608810424805,
        0.5304179787635803
      ],
      "min": [
        -4.867994785308838,
        1.3989850282669067,
        0.0
      ],
      "type": "VEC3"
    },
    {
      "bufferView": 2,
      "byteOffset": 13848,
      "componentType": 5126,
      "count": 1154,
      "max": [
        0.9998137354850769,
        1.0,
        1.0
      ],
      "min": [
        -0.9998137354850769,
        -1.0,
        -1.0
      ],
      "type": "VEC3"
    },
    {
      "bufferView": 1,
      "componentType": 5126,
      "count": 1154,
      "max": [
        0.0,
        0.0
      ],
      "min": [
        0.0,
        0.0
      ],
      "type": "VEC2"
    },
    {
      "bufferView": 0,
      "componentType": 5125,
      "count": 6912,
      "type": "SCALAR"
    }
  ],
  "asset": {
    "extras": {
      "author": "funnyeducomics (https://sketchfab.com/funnyeducomics)",
      "license": "SKETCHFAB Standard (https://sketchfab.com/licenses)",
      "source": "https://sketchfab.com/3d-models/strawberry-heart-199f16f2b586450f9a560bdf7449a45a",
      "title": "Strawberry-heart"
    },
    "generator": "Sketchfab-16.17.0",
    "version": "2.0"
  },
  "bufferViews": [
    {
      "buffer": 0,
      "byteLength": 27648,
      "name": "floatBufferViews",
      "target": 34963
    },
    {
      "buffer": 0,
      "byteLength": 9232,
      "byteOffset": 27648,
      "byteStride": 8,
      "name": "floatBufferViews",
      "target": 34962
    },
    {
      "buffer": 0,
      "byteLength": 27696,
      "byteOffset": 36880,
      "byteStride": 12,
      "name": "floatBufferViews",
      "target": 34962
    }
  ],
  "buffers": [
    {
      "byteLength": 64576,
      "uri": "StrawberryHeart.bin"
    }
  ],
  "extensionsUsed": [
    "KHR_materials_specular"
  ],
  "materials": [
    {
      "doubleSided": true,
      "extensions": {
        "KHR_materials_specular": {
          "specularColorFactor": [
            1.0,
            1.0,
            1.0
          ],
          "specularFactor": 0.5958113396155111
        }
      },
      "name": "pasted__pasted__blinn1SG",
      "pbrMetallicRoughness": {
        "baseColorFactor": [
          0.94,
          0.66,
          0.92,
          1.0
        ],
        "metallicFactor": 0.4678109495190842,
        "roughnessFactor": 0.35809632943643255
      }
    }
  ],
  "meshes": [
    {
      "name": "Object_0",
      "primitives": [
        {
          "attributes": {
            "NORMAL": 1,
            "POSITION": 0,
            "TEXCOORD_0": 2
          },
          "indices": 3,
          "material": 0,
          "mode": 4
        }
      ]
    }
  ],
  "nodes": [
    {
      "children": [
        1
      ],
      "matrix": [
        1.0,
        0.0,
        0.0,
        0.0,
        0.0,
        2.220446049250313e-16,
        -1.0,
        0.0,
        0.0,
        1.0,
        2.220446049250313e-16,
        0.0,
        0.0,
        0.0,
        0.0,
        1.0
      ],
      "name": "Sketchfab_model"
    },
    {
      "children": [
        2
      ],
      "name": "strawberry-heart.obj.cleaner.materialmerger.gles"
    },
    {
      "mesh": 0,
      "name": "Object_2"
    }
  ],
  "scene": 0,
  "scenes": [
    {
      "name": "Sketchfab_Scene",
      "nodes": [
        0
      ]
    }
  ]
}
