{
  "accessors": [
    {
      "bufferView": 2,
      "componentType": 5126,
      "count": 65532,
      "max": [
        1.260133981704712,
        1.1094779968261719,
        0.3349379897117615
      ],
      "min": [
        -1.260133981704712,
        -1.0641180276870728,
        -0.26634499430656433
      ],
      "type": "VEC3"
    },
    {
      "bufferView": 2,
      "byteOffset": 786384,
      "componentType": 5126,
      "count": 65532,
      "max": [
        0.9999142289161682,
        0.999987006187439,
        1.0
      ],
      "min": [
        -0.9999424815177917,
        -0.9997886419296265,
        -0.9999234676361084
      ],
      "type": "VEC3"
    },
    {
      "bufferView": 1,
      "componentType": 5126,
      "count": 65532,
      "max": [
        1.0,
        1.0
      ],
      "min": [
        0.0,
        0.0
      ],
      "type": "VEC2"
    },
    {
      "bufferView": 0,
      "componentType": 5125,
      "count": 362664,
      "type": "SCALAR"
    },
    {
      "bufferView": 2,
      "byteOffset": 1572768,
      "componentType": 5126,
      "count": 65532,
      "max": [
        1.2172759771347046,
        1.0708379745483398,
        0.39401599764823914
      ],
      "min": [
        -1.2170900106430054,
        -1.0190019607543945,
        0.24314400553703308
      ],
      "type": "VEC3"
    },
    {
      "bufferView": 2,
      "byteOffset": 2359152,
      "componentType": 5126,
      "count": 65532,
      "max": [
        0.9999142289161682,
        0.999987006187439,
        1.0
      ],
      "min": [
        -0.9999333620071411,
        -0.9997886419296265,
        -1.0
      ],
      "type": "VEC3"
    },
    {
      "bufferView": 1,
      "byteOffset": 524256,
      "componentType": 5126,
      "count": 65532,
      "max": [
        1.0,
        1.0
      ],
      "min": [
        0.0,
        0.0
      ],
      "type": "VEC2"
    },
    {
      "bufferView": 0,
      "byteOffset": 1450656,
      "componentType": 5125,
      "count": 357786,
      "type": "SCALAR"
    },
    {
      "bufferView": 2,
      "byteOffset": 3145536,
      "componentType": 5126,
      "count": 8717,
      "max": [
        0.04398899897933006,
        0.3321479856967926,
        0.3349379897117615
      ],
      "min": [
        -1.1225080490112305,
        -1.0190019607543945,
        0.24314400553703308
      ],
      "type": "VEC3"
    },
    {
      "bufferView": 2,
      "byteOffset": 3250140,
      "componentType": 5126,
      "count": 8717,
      "max": [
        0.9996364712715149,
        0.9991044998168945,
        1.0
      ],
      "min": [
        -0.9999424815177917,
        -0.9990097880363464,
        -0.9999233484268188
      ],
      "type": "VEC3"
    },
    {
      "bufferView": 1,
      "byteOffset": 1048512,
      "componentType": 5126,
      "count": 8717,
      "max": [
        1.0,
        1.0
      ],
      "min": [
        0.0,
        0.009999999776482582
      ],
      "type": "VEC2"
    },
    {
      "bufferView": 0,
      "byteOffset": 2881800,
      "componentType": 5125,
      "count": 47016,
      "type": "SCALAR"
    },
    {
      "bufferView": 2,
      "byteOffset": 3354744,
      "componentType": 5126,
      "count": 6423,
      "max": [
        0.760420024394989,
        0.6269339919090271,
        0.44526201486587524
      ],
      "min": [
        -0.6678270101547241,
        -0.5326610207557678,
        0.10960499942302704
      ],
      "type": "VEC3"
    },
    {
      "bufferView": 2,
      "byteOffset": 3431820,
      "componentType": 5126,
      "count": 6423,
      "max": [
        0.9998987913131714,
        0.9996668696403503,
        0.9997386336326599
      ],
      "min": [
        -0.9998981356620789,
        -0.9996593594551086,
        -0.999974250793457
      ],
      "type": "VEC3"
    },
    {
      "bufferView": 1,
      "byteOffset": 1118248,
      "componentType": 5126,
      "count": 6423,
      "max": [
        1.0,
        1.0
      ],
      "min": [
        0.0,
        0.0
      ],
      "type": "VEC2"
    },
    {
      "bufferView": 0,
      "byteOffset": 3069864,
      "componentType": 5125,
      "count": 35712,
      "type": "SCALAR"
    }
  ],
  "asset": {
    "extras": {
      "author": "funnyeducomics (https://sketchfab.com/funnyeducomics)",
      "license": "SKETCHFAB Standard (https://sketchfab.com/licenses)",
      "source": "https://sketchfab.com/3d-models/topping-centered-4f69640028d845879713e554982e5ec2",
      "title": "Topping-centered"
    },
    "generator": "Sketchfab-16.21.0",
    "version": "2.0"
  },
  "bufferViews": [
    {
      "buffer": 0,
      "byteLength": 3212712,
      "name": "floatBufferViews",
      "target": 34963
    },
    {
      "buffer": 0,
      "byteLength": 1169632,
      "byteOffset": 3212712,
      "byteStride": 8,
      "name": "floatBufferViews",
      "target": 34962
    },
    {
      "buffer": 0,
      "byteLength": 3508896,
      "byteOffset": 4382344,
      "byteStride": 12,
      "name": "floatBufferViews",
      "target": 34962
    }
  ],
  "buffers": [
    {
      "byteLength": 7891240,
      "uri": "Topping1.bin"
    }
  ],
  "materials": [
    {
      "doubleSided": true,
      "name": "plateblinn4SG",
      "pbrMetallicRoughness": {
        "baseColorFactor": [
          1.0,
          0.88,
          0.99,
          1.0
        ],
        "metallicFactor": 0.0
      }
    },
    {
      "doubleSided": true,
      "name": "plateblinn6SG",
      "pbrMetallicRoughness": {
        "baseColorFactor": [
          1.0,
          0.0,
          0.0,
          1.0
        ],
        "metallicFactor": 0.0
      }
    }
  ],
  "meshes": [
    {
      "name": "Object_0",
      "primitives": [
        {
          "attributes": {
            "NORMAL": 1,
            "POSITION": 0,
            "TEXCOORD_0": 2
          },
          "indices": 3,
          "material": 0,
          "mode": 4
        }
      ]
    },
    {
      "name": "Object_1",
      "primitives": [
        {
          "attributes": {
            "NORMAL": 5,
            "POSITION": 4,
            "TEXCOORD_0": 6
          },
          "indices": 7,
          "material": 0,
          "mode": 4
        }
      ]
    },
    {
      "name": "Object_2",
      "primitives": [
        {
          "attributes": {
            "NORMAL": 9,
            "POSITION": 8,
            "TEXCOORD_0": 10
          },
          "indices": 11,
          "material": 0,
          "mode": 4
        }
      ]
    },
    {
      "name": "Object_3",
      "primitives": [
        {
          "attributes": {
            "NORMAL": 13,
            "POSITION": 12,
            "TEXCOORD_0": 14
          },
          "indices": 15,
          "material": 1,
          "mode": 4
        }
      ]
    }
  ],
  "nodes": [
    {
      "children": [
        1
      ],
      "matrix": [
        1.0,
        0.0,
        0.0,
        0.0,
        0.0,
        2.220446049250313e-16,
        -1.0,
        0.0,
        0.0,
        1.0,
        2.220446049250313e-16,
        0.0,
        0.0,
        0.0,
        0.0,
        1.0
      ],
      "name": "Sketchfab_model"
    },
    {
      "children": [
        2,
        3,
        4,
        5
      ],
      "name": "topping-centered.obj.cleaner.materialmerger.gles"
    },
    {
      "mesh": 0,
      "name": "Object_2"
    },
    {
      "mesh": 1,
      "name": "Object_3"
    },
    {
      "mesh": 2,
      "name": "Object_4"
    },
    {
      "mesh": 3,
      "name": "Object_5"
    }
  ],
  "scene": 0,
  "scenes": [
    {
      "name": "Sketchfab_Scene",
      "nodes": [
        0
      ]
    }
  ]
}
